<svg width="29" height="21" viewBox="0 0 29 21" fill="none" xmlns="http://www.w3.org/2000/svg">
<path fill-rule="evenodd" clip-rule="evenodd" d="M18 4.8V7.92H17.9698V4.8H18ZM12 8.04H5.625V0.81C5.625 0.590001 5.54392 0.400001 5.38176 0.24C5.21959 0.08 5.02703 0 4.80405 0H0.820946C0.597973 0 0.405405 0.08 0.243243 0.24C0.0810811 0.400001 0 0.590001 0 0.81V20.19C0 20.43 0.0810811 20.63 0.243243 20.79C0.405405 20.93 0.597973 21 0.820946 21H4.80405C5.02703 21 5.21959 20.92 5.38176 20.76C5.54392 20.6 5.625 20.41 5.625 20.19V12.84H12V8.04ZM18 16.2V12.72H17.9698V16.2H18Z" fill="#287EFF"/>
<path d="M22.4523 7.92C23.4935 7.92 24.4246 8.09 25.2456 8.43C26.0665 8.77 26.7474 9.24 27.288 9.84C27.8486 10.44 28.2691 11.14 28.5495 11.94C28.8498 12.72 29 13.56 29 14.46C29 15.36 28.8498 16.21 28.5495 17.01C28.2691 17.79 27.8486 18.48 27.288 19.08C26.7474 19.68 26.0665 20.15 25.2456 20.49C24.4246 20.83 23.4935 21 22.4523 21H12.811C12.5907 21 12.4005 20.92 12.2403 20.76C12.0801 20.6 12 20.41 12 20.19V0.81C12 0.590001 12.0801 0.400001 12.2403 0.24C12.4005 0.08 12.5907 0 12.811 0H26.5371C26.7574 0 26.9476 0.08 27.1078 0.24C27.268 0.400001 27.3481 0.590001 27.3481 0.81V3.99C27.3481 4.21 27.268 4.4 27.1078 4.56C26.9476 4.72 26.7574 4.8 26.5371 4.8H17.5565V7.92H22.4523ZM23.4435 14.46C23.4435 13.96 23.2933 13.55 22.9929 13.23C22.7126 12.89 22.182 12.72 21.4011 12.72H17.5565V16.2H21.4011C22.182 16.2 22.7126 16.03 22.9929 15.69C23.2933 15.35 23.4435 14.94 23.4435 14.46Z" fill="white"/>
</svg>
