<svg width="42" height="42" viewBox="0 0 42 42" fill="none" xmlns="http://www.w3.org/2000/svg">
<path d="M0 10C0 4.47715 4.47715 0 10 0H32C37.5228 0 42 4.47715 42 10V32C42 37.5228 37.5228 42 32 42H10C4.47715 42 0 37.5228 0 32V10Z" fill="#C3DBFF" fill-opacity="0.1"/>
<path fill-rule="evenodd" clip-rule="evenodd" d="M28.5607 12.9998V20.8881H26.3238V22.6586H32.8369V20.8881H30.6158V11H28.9717L25.652 12.4702L26.1974 13.972L28.5607 12.9998ZM14.4539 25.2216H21.2356L22.113 27.5572H20.4294V30.213H26.7014V27.5572H25.3379L19.4928 12.7251H16.1849L10.3516 27.5572H9V30.213H15.2601V27.5572H13.5765L14.4539 25.2216ZM17.8329 15.9144L20.2634 22.6488H15.4142L17.8329 15.9144Z" fill="#9BA3B1"/>
</svg>
