<svg width="42" height="42" viewBox="0 0 42 42" fill="none" xmlns="http://www.w3.org/2000/svg">
<path d="M0 10C0 4.47715 4.47715 0 10 0H32C37.5228 0 42 4.47715 42 10V32C42 37.5228 37.5228 42 32 42H10C4.47715 42 0 37.5228 0 32V10Z" fill="#C3DBFF" fill-opacity="0.1"/>
<path d="M6 26.4223V14.2303H8.12494V26.4223H6ZM9.7196 26.4222V17.7985H11.8454V26.4222H9.7196V26.4222ZM12.1967 15.2839C12.1967 15.9932 11.6163 16.5684 10.8996 16.5684C10.1843 16.5684 9.60325 15.9932 9.60325 15.2839C9.60325 14.5746 10.1843 14 10.8996 14C11.6163 14 12.1967 14.5746 12.1967 15.2839V15.2839ZM17.6365 15.9842C16.8596 15.9842 16.3334 16.4025 16.3334 17.3223V17.7876H18.6655V19.4456H16.4V26.4222H14.294V19.4456H13.0904V17.7876H14.294V17.1239C14.294 16.0032 14.5472 15.4012 15.0202 14.9329C15.4935 14.4646 16.2265 14.2302 17.1048 14.2302C17.815 14.2302 18.2305 14.3306 18.6866 14.4646V16.1555C18.6866 16.1555 18.2867 15.9842 17.6364 15.9842H17.6365ZM23.1034 17.4533C26.8039 17.4533 27.472 20.53 27.217 22.6339L20.8188 22.6301C21.0009 24.0774 22.0415 24.8234 23.3583 24.8234L23.4296 24.8217C24.7425 24.8217 25.6328 24.0708 25.854 23.8638L26.9878 24.8607C26.1396 25.8685 24.97 26.5231 23.3242 26.5231C20.7292 26.5231 18.728 24.7682 18.728 21.8878C18.728 19.3808 20.4574 17.4535 23.1032 17.4535L23.1034 17.4533ZM20.8495 21.1754H25.2479C25.2269 19.867 24.3386 19.1571 23.0869 19.1571C21.944 19.1571 21.0615 19.8546 20.8496 21.1754H20.8495ZM31.5927 25.0981C31.5927 25.8852 30.9491 26.5222 30.1542 26.5222C29.3597 26.5222 28.7155 25.8852 28.7155 25.0981C28.7155 24.3112 29.3596 23.6732 30.1542 23.6732C30.9491 23.6732 31.5927 24.3111 31.5927 25.0981ZM31.5927 18.9122C31.5927 19.6989 30.9491 20.3369 30.1542 20.3369C29.3597 20.3369 28.7155 19.699 28.7155 18.9122C28.7155 18.1258 29.3596 17.4874 30.1542 17.4874C30.9491 17.4874 31.5927 18.1256 31.5927 18.9122ZM33.2838 14.0105C35.0865 16.0907 36.1687 19.0932 36.1687 22.0049C36.1687 24.9169 35.0865 27.92 33.2838 30L32.0962 29.1286C33.3676 26.9048 34.0048 24.8457 34.0048 22.0051C34.0048 19.1654 33.3676 17.106 32.0962 14.8815L33.2838 14.0106V14.0105Z" fill="#9BA3B1"/>
</svg>
