<svg width="42" height="42" viewBox="0 0 42 42" fill="none" xmlns="http://www.w3.org/2000/svg">
<rect width="42" height="42" rx="10" fill="#C3DBFF" fill-opacity="0.1"/>
<path fill-rule="evenodd" clip-rule="evenodd" d="M12.5701 17.6571C12.3133 20.0431 12.3247 22.7949 12.6821 25.1712C12.8798 26.486 13.9529 27.4941 15.2775 27.6092L16.6619 27.7295C19.5486 27.9805 22.4515 27.9805 25.3381 27.7295L26.7225 27.6092C28.0472 27.494 29.1203 26.486 29.318 25.1712C29.6753 22.7949 29.6868 20.0432 29.43 17.6572C29.3968 17.3806 29.3595 17.1044 29.318 16.8286C29.1203 15.5137 28.0472 14.5057 26.7225 14.3906L25.3381 14.2702C22.4515 14.0193 19.5486 14.0193 16.6619 14.2702L15.2775 14.3906C13.9529 14.5057 12.8798 15.5137 12.6821 16.8286C12.6406 17.1043 12.6033 17.3805 12.5701 17.6571ZM16.781 15.6401C19.5884 15.396 22.4117 15.396 25.2191 15.6401L26.6034 15.7604C27.2949 15.8205 27.8551 16.3467 27.9583 17.0331C27.969 17.1043 27.9794 17.1756 27.9896 17.247L22.892 20.079C21.7154 20.7327 20.2846 20.7327 19.108 20.079L14.0105 17.247C14.0206 17.1757 14.0311 17.1043 14.0418 17.0331C14.145 16.3467 14.7052 15.8205 15.3966 15.7604L16.781 15.6401ZM28.1578 18.7265C28.3356 20.8052 28.2691 22.8997 27.9583 24.9667C27.8551 25.6531 27.2949 26.1793 26.6034 26.2394L25.2191 26.3597C22.4117 26.6037 19.5884 26.6037 16.781 26.3597L15.3966 26.2394C14.7052 26.1793 14.145 25.6531 14.0418 24.9667C13.7309 22.8997 13.6644 20.8052 13.8422 18.7265L18.4403 21.2809C20.0322 22.1653 21.9678 22.1653 23.5597 21.2809L28.1578 18.7265Z" fill="#9BA3B1"/>
</svg>
