<svg width="42" height="42" viewBox="0 0 42 42" fill="none" xmlns="http://www.w3.org/2000/svg">
<rect width="42" height="42" rx="10" fill="#C3DBFF" fill-opacity="0.1"/>
<path d="M18.1455 16.5725C18.3132 16.577 18.4991 16.5861 18.676 16.9788C18.7933 17.2402 18.9909 17.7214 19.1519 18.1135C19.2772 18.4185 19.3803 18.6695 19.406 18.7209C19.465 18.8383 19.5013 18.9736 19.4242 19.1316C19.4151 19.1502 19.4065 19.168 19.3982 19.1852C19.3364 19.3135 19.2924 19.4048 19.1884 19.5243C19.1457 19.5733 19.1011 19.6272 19.0567 19.6808C18.9787 19.7751 18.9012 19.8688 18.8347 19.935C18.7168 20.0523 18.5943 20.1787 18.7304 20.4134C18.8665 20.6481 19.3426 21.4199 20.0455 22.0427C20.8011 22.7155 21.4582 22.999 21.7903 23.1423C21.8548 23.1701 21.907 23.1926 21.9454 23.2117C22.1812 23.329 22.3218 23.311 22.4578 23.153C22.5939 22.995 23.0473 22.467 23.206 22.2323C23.3602 21.9976 23.5189 22.0337 23.7366 22.115C23.9542 22.1962 25.1151 22.7649 25.3508 22.8822C25.3975 22.9054 25.441 22.9263 25.4815 22.9457C25.6455 23.0243 25.757 23.0778 25.8043 23.1575C25.8633 23.2568 25.8633 23.7262 25.6683 24.2768C25.4688 24.8275 24.5074 25.3555 24.0721 25.3961C24.0309 25.4 23.9899 25.405 23.9477 25.4101C23.5487 25.4584 23.0423 25.5196 21.238 24.8094C19.0147 23.9351 17.5471 21.7659 17.2504 21.3274C17.227 21.2928 17.2109 21.2689 17.2022 21.2574L17.1972 21.2506C17.0622 21.07 16.2363 19.9649 16.2363 18.8248C16.2363 17.7339 16.7737 17.166 17.0188 16.9069C17.0344 16.8905 17.0487 16.8754 17.0617 16.8614C17.2793 16.6267 17.5333 16.568 17.692 16.568C17.8507 16.568 18.0094 16.568 18.1455 16.5725Z" fill="#9BA3B1"/>
<path fill-rule="evenodd" clip-rule="evenodd" d="M12.0022 29.554C11.9272 29.8262 12.1751 30.0775 12.4483 30.0061L16.6717 28.903C18.0049 29.6251 19.5058 30.0087 21.034 30.0087H21.0386C26.0674 30.0087 30.1667 25.9332 30.1667 20.9234C30.1667 18.4952 29.2189 16.2114 27.4958 14.4963C25.7727 12.7813 23.4827 11.8335 21.0385 11.8335C16.0097 11.8335 11.9104 15.909 11.9104 20.9189C11.9099 22.5127 12.3305 24.0785 13.1302 25.4593L12.0022 29.554ZM14.4558 25.8245C14.5538 25.4691 14.5048 25.0892 14.3201 24.7702C13.6416 23.5987 13.2849 22.2702 13.2854 20.9189C13.2854 16.6749 16.7626 13.2085 21.0385 13.2085C23.1192 13.2085 25.0604 14.0124 26.5258 15.4709C27.9894 16.9277 28.7917 18.8608 28.7917 20.9234C28.7917 25.1673 25.3145 28.6337 21.0386 28.6337H21.034C19.7356 28.6337 18.4596 28.3077 17.3266 27.694C17.02 27.5279 16.6617 27.4845 16.3242 27.5726L13.792 28.234L14.4558 25.8245Z" fill="#9BA3B1"/>
</svg>
