<svg width="42" height="42" viewBox="0 0 42 42" fill="none" xmlns="http://www.w3.org/2000/svg">
<rect width="42" height="42" rx="10" fill="#C3DBFF" fill-opacity="0.1"/>
<path fill-rule="evenodd" clip-rule="evenodd" d="M31.4546 25.4594C30.956 24.4552 30.2991 23.5379 29.509 22.7427C29.2401 22.4301 28.9248 22.1217 28.6787 21.8809L28.6444 21.8473C28.5175 21.723 28.4125 21.6199 28.3267 21.531C29.407 20.0289 30.3317 18.4203 31.0861 16.7302L31.1165 16.662L31.1379 16.5905C31.237 16.2578 31.3512 15.6252 30.9472 15.0536C30.5297 14.4627 29.8611 14.3562 29.4134 14.3562H27.3536C26.9241 14.3365 26.4989 14.4526 26.1387 14.6886C25.7757 14.9264 25.498 15.2732 25.3452 15.6787C24.9016 16.7353 24.3465 17.7404 23.6902 18.677V16.2631C23.6902 15.9511 23.6608 15.4292 23.3267 14.9886C22.9267 14.4611 22.3482 14.3562 21.9466 14.3562H18.6782C18.2571 14.3464 17.8475 14.497 17.5328 14.778C17.2105 15.0659 17.013 15.4679 16.9822 15.899L16.9792 15.9398V15.9808C16.9792 16.4258 17.1556 16.754 17.2965 16.9605C17.3595 17.0529 17.427 17.1371 17.4696 17.1902L17.4794 17.2025C17.5249 17.2591 17.5552 17.297 17.5857 17.3384C17.6657 17.4473 17.7809 17.6152 17.8135 18.0498V19.4C17.25 18.4737 16.6556 17.2411 16.2084 15.9247L16.2015 15.9045L16.1939 15.8845C16.0824 15.5924 15.9035 15.1675 15.5453 14.8423C15.1268 14.4624 14.6318 14.3562 14.1817 14.3562H12.0917C11.6363 14.3562 11.0873 14.4627 10.6777 14.8948C10.2748 15.3198 10.2292 15.829 10.2292 16.0997V16.2218L10.2549 16.3411C10.8338 19.0279 12.0266 21.544 13.7395 23.6927C14.5161 24.9174 15.5685 25.944 16.8128 26.6901C18.077 27.4481 19.5032 27.8949 20.9739 27.9937L21.0122 27.9963H21.0507C21.7161 27.9963 22.4097 27.9389 22.9312 27.5913C23.6349 27.1224 23.6902 26.4023 23.6902 26.0435V25.0003C23.8707 25.1463 24.0948 25.3428 24.369 25.6069C24.7006 25.9388 24.9646 26.2263 25.191 26.4773L25.3119 26.6116L25.3126 26.6124C25.4884 26.8082 25.6615 27.0009 25.819 27.1594C26.0171 27.3585 26.2613 27.5779 26.5683 27.74C26.9007 27.9155 27.2496 27.9949 27.6201 27.9949H29.7115C30.1521 27.9949 30.7841 27.8907 31.2284 27.3756C31.7126 26.8142 31.6756 26.1262 31.5233 25.6318L31.496 25.5428L31.4546 25.4594ZM26.2119 25.5562C25.9765 25.2953 25.6926 24.9859 25.3339 24.6272L25.3309 24.6242C24.0878 23.4257 23.507 23.2169 23.0962 23.2169C22.8778 23.2169 22.6361 23.2414 22.4792 23.4368C22.4052 23.5291 22.3663 23.6403 22.3445 23.7563C22.3227 23.872 22.3152 24.008 22.3152 24.1628V26.0435C22.3152 26.277 22.2768 26.3751 22.1687 26.4471C22.0248 26.543 21.7173 26.6207 21.0584 26.6213C19.8077 26.5361 18.5951 26.1555 17.5199 25.5108C16.4425 24.8648 15.534 23.9721 14.8692 22.9062L14.862 22.8946L14.8534 22.884C13.2573 20.8973 12.145 18.5667 11.6045 16.0765C11.6074 15.9565 11.6334 15.8852 11.6755 15.8408C11.719 15.795 11.8242 15.7312 12.0917 15.7312H14.1817C14.4142 15.7312 14.5345 15.7817 14.6211 15.8603C14.7193 15.9495 14.8044 16.1008 14.9079 16.3711C15.4208 17.8799 16.1145 19.2909 16.7714 20.3284C17.0998 20.847 17.4229 21.2786 17.714 21.5836C17.8594 21.7359 18.0019 21.8621 18.1379 21.9518C18.2696 22.0386 18.4188 22.1071 18.5723 22.1071C18.6533 22.1071 18.748 22.0987 18.8392 22.0584C18.9374 22.0149 19.0135 21.9425 19.0673 21.8455C19.1624 21.6739 19.1885 21.4197 19.1885 21.0866V18.0032L19.188 17.996C19.1405 17.2459 18.914 16.8239 18.6935 16.5239C18.6452 16.4582 18.5975 16.3988 18.5558 16.3468L18.5444 16.3326C18.4986 16.2755 18.4622 16.2293 18.4322 16.1855C18.3774 16.1051 18.3561 16.049 18.3544 15.9889C18.3615 15.9176 18.3951 15.8515 18.4487 15.8036C18.5043 15.7539 18.5771 15.7281 18.6517 15.7312H21.9466C22.1355 15.7312 22.1991 15.7772 22.2311 15.8195C22.2763 15.8791 22.3152 16.003 22.3152 16.2631V20.4144C22.3152 20.9075 22.5425 21.2413 22.8726 21.2413C23.2524 21.2413 23.5263 21.0108 24.0051 20.532L24.0131 20.524L24.0202 20.5152C25.0935 19.2064 25.9706 17.7484 26.6235 16.1868L26.6277 16.1751C26.6768 16.0371 26.7696 15.919 26.8922 15.8387C27.0147 15.7585 27.1601 15.7205 27.3062 15.7306L27.3141 15.7312H29.4134C29.6997 15.7312 29.7939 15.804 29.8243 15.8471C29.8567 15.893 29.8793 15.9912 29.8242 16.1839C29.0715 17.8673 28.1407 19.4651 27.0482 20.9507L27.0413 20.9612C26.9352 21.1234 26.8189 21.3028 26.8021 21.5089C26.784 21.7302 26.8798 21.9314 27.0473 22.147C27.1694 22.3276 27.4212 22.5741 27.6767 22.8241L27.7007 22.8477C27.9686 23.1098 28.2587 23.3938 28.4917 23.6688L28.4979 23.6761L28.5047 23.6829C29.1991 24.3755 29.7765 25.1761 30.2144 26.0536C30.2843 26.2925 30.2415 26.4146 30.1872 26.4776C30.1236 26.5513 29.9812 26.6199 29.7115 26.6199H27.6201C27.4569 26.6199 27.3308 26.5877 27.2103 26.5241C27.0848 26.4578 26.9558 26.3524 26.7939 26.1897C26.6635 26.0586 26.5211 25.9001 26.3473 25.7067C26.3043 25.6588 26.2592 25.6086 26.2119 25.5562Z" fill="#9BA3B1"/>
</svg>
