<svg width="42" height="42" viewBox="0 0 42 42" fill="none" xmlns="http://www.w3.org/2000/svg">
<rect width="42" height="42" rx="10" fill="#C3DBFF" fill-opacity="0.1"/>
<path fill-rule="evenodd" clip-rule="evenodd" d="M15.3053 22.8512C15.3454 22.8647 15.3859 22.8743 15.4264 22.8801C15.4705 22.9838 15.5275 23.118 15.594 23.2748C15.7564 23.6577 15.9751 24.1754 16.2008 24.7156C16.6612 25.8171 17.1256 26.9526 17.2282 27.2776C17.3551 27.6794 17.4893 27.9526 17.6359 28.1391C17.7116 28.2355 17.7992 28.3197 17.9018 28.3835C17.9534 28.4156 18.0079 28.4419 18.0648 28.4615C18.0673 28.4624 18.0698 28.4632 18.0723 28.4641C18.3657 28.5748 18.6331 28.5287 18.8005 28.4723C18.8901 28.4421 18.9626 28.4056 19.014 28.3761C19.0402 28.3611 19.0623 28.347 19.08 28.3351L19.0842 28.3323L21.6749 26.7167L24.6673 29.011C24.7115 29.0448 24.7596 29.0732 24.8107 29.0955C25.1702 29.2523 25.5183 29.3071 25.8458 29.2623C26.1727 29.2177 26.4323 29.0803 26.6255 28.9257C26.8147 28.7743 26.943 28.6048 27.0228 28.4788C27.0636 28.4145 27.0943 28.3576 27.1159 28.314C27.1267 28.2921 27.1354 28.2732 27.1422 28.2581L27.1508 28.2381L27.1541 28.2302L27.1554 28.2269L27.1561 28.2254L27.1566 28.2239C27.1724 28.1846 27.1844 28.1439 27.1927 28.1024L29.9245 14.329C29.9333 14.285 29.9377 14.2402 29.9377 14.1953C29.9377 13.7919 29.7857 13.4084 29.4283 13.1756C29.1229 12.9767 28.7827 12.9682 28.5677 12.9845C28.3357 13.0021 28.1215 13.0594 27.9777 13.1051C27.9029 13.1289 27.8402 13.1519 27.7949 13.1694C27.7722 13.1782 27.7536 13.1858 27.7397 13.1916L27.7293 13.1959L12.4084 19.2061L12.4064 19.2068C12.3966 19.2104 12.3841 19.2151 12.3692 19.2209C12.3395 19.2324 12.2998 19.2487 12.2533 19.2697C12.1628 19.3108 12.0358 19.3749 11.9054 19.4642C11.6972 19.6068 11.2182 19.9974 11.2989 20.6421C11.3632 21.1564 11.7155 21.4723 11.9302 21.6242C12.0481 21.7076 12.1601 21.7672 12.2416 21.806C12.2795 21.824 12.358 21.856 12.3921 21.8698L12.4007 21.8733L15.3053 22.8512ZM28.2655 14.462L28.2633 14.463C28.2557 14.4663 28.248 14.4695 28.2403 14.4725L12.9008 20.49C12.8928 20.4931 12.8847 20.4961 12.8766 20.4989L12.868 20.5022C12.8582 20.506 12.8417 20.5127 12.821 20.5221C12.8092 20.5274 12.7969 20.5332 12.7844 20.5395C12.8016 20.5492 12.8181 20.5576 12.8327 20.5645C12.8467 20.5712 12.8574 20.5758 12.8633 20.5782L15.744 21.548C15.7967 21.5658 15.8459 21.5893 15.891 21.6176L25.4031 16.0494L25.4119 16.0441C25.4189 16.04 25.428 16.0347 25.4389 16.0286C25.4605 16.0163 25.4903 16 25.5257 15.982C25.5917 15.9484 25.6973 15.8986 25.8163 15.8618C25.8991 15.8362 26.1434 15.764 26.4075 15.8488C26.5705 15.901 26.7392 16.0134 26.849 16.2038C26.9035 16.2984 26.9326 16.3934 26.9466 16.4804C26.984 16.6174 26.9781 16.7527 26.9489 16.8696C26.8858 17.1212 26.709 17.3175 26.5482 17.4676C26.4104 17.5963 24.6271 19.3158 22.8679 21.0133C21.9906 21.8598 21.1222 22.6979 20.4732 23.3245L20.0469 23.736L25.4295 27.8627C25.5529 27.9069 25.6259 27.9046 25.6597 27.9C25.6999 27.8945 25.7328 27.879 25.7665 27.8521C25.8041 27.822 25.837 27.7814 25.8615 27.7426L25.8626 27.741L28.5122 14.3824C28.4728 14.3919 28.4331 14.4031 28.3948 14.4153C28.3513 14.4292 28.3156 14.4423 28.2918 14.4515C28.2801 14.4561 28.2716 14.4595 28.267 14.4614L28.2655 14.462ZM20.5093 25.8231L19.4354 24.9998L19.1752 26.6551L20.5093 25.8231ZM18.4503 23.3661L19.5182 22.3352C20.1673 21.7086 21.0357 20.8704 21.9131 20.0238L22.8046 19.1638L16.8279 22.6625L16.8599 22.7381C17.0228 23.1223 17.2425 23.6423 17.4695 24.1853C17.6392 24.5914 17.8166 25.0189 17.9783 25.4147L18.2377 23.7644C18.2627 23.6052 18.3405 23.4675 18.4503 23.3661Z" fill="#9BA3B1"/>
</svg>
